HIERARCHY
ROOT Hips
{
 OFFSET 0.000000 0.000000 0.000000
 CHANNELS 6 Xposition Yposition Zposition Yrotation Xrotation Zrotation
 JOINT Chest
 {
  OFFSET 0.000000 9.585900 0.002600
  CHANNELS 3 Yrotation Xrotation Zrotation
  JOINT Chest2
  {
   OFFSET 0.000000 9.601200 -0.005300
   CHANNELS 3 Yrotation Xrotation Zrotation
   JOINT Chest3
   {
    OFFSET 0.000000 9.561800 0.000000
    CHANNELS 3 Yrotation Xrotation Zrotation
    JOINT Chest4
    {
     OFFSET 0.000000 9.552100 0.000000
     CHANNELS 3 Yrotation Xrotation Zrotation
     JOINT Neck
     {
      OFFSET 0.000000 14.453000 0.000000
      CHANNELS 3 Yrotation Xrotation Zrotation
      JOINT Head
      {
       OFFSET 0.000000 8.936500 -0.011300
       CHANNELS 3 Yrotation Xrotation Zrotation
       End Site
       {
        OFFSET 0.000000 17.073600 -0.006000
       }
      }
     }
     JOINT RightCollar
     {
      OFFSET -2.921100 9.558500 0.000000
      CHANNELS 3 Yrotation Xrotation Zrotation
      JOINT RightShoulder
      {
       OFFSET -13.519700 0.000000 0.000000
       CHANNELS 3 Yrotation Xrotation Zrotation
       JOINT RightElbow
       {
        OFFSET 0.000000 -29.696600 0.000000
        CHANNELS 3 Yrotation Xrotation Zrotation
        JOINT RightWrist
        {
         OFFSET 0.000000 -24.004700 0.000000
         CHANNELS 3 Yrotation Xrotation Zrotation
         End Site
         {
          OFFSET 0.000000 -17.728500 0.000000
         }
        }
       }
      }
     }
     JOINT LeftCollar
     {
      OFFSET 2.921100 9.558500 0.000000
      CHANNELS 3 Yrotation Xrotation Zrotation
      JOINT LeftShoulder
      {
       OFFSET 13.519700 0.000000 0.000000
       CHANNELS 3 Yrotation Xrotation Zrotation
       JOINT LeftElbow
       {
        OFFSET 0.000000 -29.696600 0.000000
        CHANNELS 3 Yrotation Xrotation Zrotation
        JOINT LeftWrist
        {
         OFFSET 0.000000 -24.004700 0.000000
         CHANNELS 3 Yrotation Xrotation Zrotation
         End Site
         {
          OFFSET 0.000000 -17.728500 0.000000
         }
        }
       }
      }
     }
    }
   }
  }
 }
 JOINT RightHip
 {
  OFFSET -7.771700 -0.012900 -0.001300
  CHANNELS 3 Yrotation Xrotation Zrotation
  JOINT RightKnee
  {
   OFFSET 0.000000 -40.869800 0.001200
   CHANNELS 3 Yrotation Xrotation Zrotation
   JOINT RightAnkle
   {
    OFFSET 0.000000 -39.717900 0.002100
    CHANNELS 3 Yrotation Xrotation Zrotation
    JOINT RightToe
    {
     OFFSET 0.000000 -4.965400 11.033500
     CHANNELS 3 Yrotation Xrotation Zrotation
     End Site
     {
      OFFSET 0.000000 -1.423100 5.872300
     }
    }
   }
  }
 }
 JOINT LeftHip
 {
  OFFSET 7.771700 -0.012900 -0.001300
  CHANNELS 3 Yrotation Xrotation Zrotation
  JOINT LeftKnee
  {
   OFFSET 0.000000 -40.869800 0.001200
   CHANNELS 3 Yrotation Xrotation Zrotation
   JOINT LeftAnkle
   {
    OFFSET 0.000000 -39.717900 0.002100
    CHANNELS 3 Yrotation Xrotation Zrotation
    JOINT LeftToe
    {
     OFFSET 0.000000 -4.965400 11.033500
     CHANNELS 3 Yrotation Xrotation Zrotation
     End Site
     {
      OFFSET 0.000000 -1.423100 5.872300
     }
    }
   }
  }
 }
}
MOTION
Frames: 7
Frame Time: 0.008333
0.000000 85.388000 0.000000 0.000000 -5.767877 0.000000 0.000000 11.653817 0.000000 0.000000 -5.885947 0.000000 0.000000 -0.000000 0.000000 0.000000 -0.000000 0.000000 0.000000 12.528835 0.000000 0.000000 0.711642 0.000000 0.000000 -0.000000 0.000000 0.000000 0.000000 -90.000000 0.000000 -2.309062 0.000000 0.000000 2.309062 0.000000 0.000000 -0.000000 0.000000 0.000000 -0.000000 90.000000 0.000000 -2.309062 0.000000 0.000000 2.309062 0.000000 0.000000 8.520406 0.000000 0.000000 1.905762 0.000000 -0.000000 -4.658285 0.000000 0.000000 -0.000000 0.000000 0.000000 8.520406 0.000000 0.000000 1.905762 0.000000 -0.000000 -4.658285 0.000000 0.000000 -0.000000 0.000000
-6.341840 55.492321 27.669956 177.636514 -27.348224 -10.994411 0.804823 14.887230 6.706477 0.339037 8.477988 2.514173 0.467961 10.735244 3.203359 0.331000 8.540746 2.532814 3.830925 20.553007 -2.830714 4.781877 -3.729705 -3.932577 0.122317 1.452305 -2.837728 -8.419310 -15.625521 4.141518 -72.299524 -38.625387 95.816406 -2.471166 -7.015542 -5.666207 -12.550182 3.800795 -4.677913 5.021630 -16.771911 -0.387207 104.889908 -43.664299 -110.521550 41.887390 1.113789 -6.085599 -20.618628 -37.147734 11.772027 31.784138 85.851876 28.133813 0.309071 -18.363433 -1.478683 -0.329084 1.534947 -0.118278 -16.743342 -50.462850 18.713960 171.432013 78.955177 167.511574 -1.042099 -16.689529 1.467319 -0.817299 -2.279871 -0.402001
-6.350171 55.493626 27.677187 177.647385 -27.402213 -10.976085 0.792747 14.961484 6.687622 0.337449 8.523112 2.525820 0.477892 10.779233 3.217474 0.335829 8.577552 2.543647 3.831555 20.570843 -2.832105 4.783155 -3.709054 -3.934443 0.127714 1.442348 -2.826590 -8.351050 -15.526449 4.204212 -72.409327 -38.863992 95.853156 -2.373429 -7.000913 -5.407330 -12.578182 3.834080 -4.663005 4.971414 -16.727396 -0.473499 105.050261 -43.673760 -110.515426 41.783369 1.083067 -6.009749 -20.580915 -37.135614 11.752495 31.789410 85.882216 28.135284 0.206316 -18.268341 -1.482465 -0.246105 1.441988 -0.082369 -16.701281 -50.420894 18.640870 171.431902 78.965699 167.524275 -1.057192 -16.670793 1.447219 -0.780065 -2.288308 -0.372559
-6.353597 55.493898 27.690311 177.645465 -27.436649 -10.986760 0.802515 15.001175 6.701891 0.335440 8.578269 2.543689 0.481869 10.817982 3.228495 0.340606 8.611478 2.554284 3.831383 20.584669 -2.835965 4.784115 -3.692955 -3.938782 0.139834 1.436533 -2.809993 -8.311268 -15.451366 4.252624 -72.482674 -39.051744 95.890485 -2.282770 -6.997699 -5.171903 -12.609944 3.863369 -4.644171 4.918936 -16.690870 -0.554529 105.200485 -43.679145 -110.498704 41.673262 1.047914 -5.896975 -20.568303 -37.103871 11.755420 31.639446 85.867237 27.981676 0.206177 -18.246587 -1.479427 -0.243872 1.441980 -0.084743 -16.707379 -50.394420 18.625694 171.391089 78.972360 167.499451 -1.035765 -16.652854 1.427066 -0.774869 -2.290920 -0.368991
-6.370491 55.491541 27.703079 177.659880 -27.466066 -10.925521 0.766163 15.059671 6.635334 0.334097 8.663763 2.570147 0.494541 10.799895 3.223241 0.345497 8.642456 2.564548 3.830639 20.597017 -2.842556 4.785037 -3.678506 -3.945892 0.156848 1.434050 -2.790040 -8.296409 -15.404080 4.283871 -72.526049 -39.209088 95.919389 -2.202634 -7.008617 -5.006540 -12.644742 3.889666 -4.625841 4.872559 -16.659108 -0.624040 105.339975 -43.687819 -110.477803 41.559182 1.016911 -5.770760 -20.512355 -37.161200 11.683198 31.715364 85.922330 28.068919 0.107035 -18.076156 -1.486093 -0.154212 1.280369 -0.042213 -16.634159 -50.390564 18.480108 171.378904 78.995942 167.513065 -1.067082 -16.619144 1.384316 -0.699182 -2.295146 -0.333559
-6.372342 55.492606 27.716376 177.633167 -27.513432 -10.938469 0.789638 15.135071 6.666652 0.345527 8.679689 2.578351 0.501457 10.836139 3.235509 0.350629 8.671495 2.574177 3.829404 20.608684 -2.850679 4.785799 -3.664752 -3.954533 0.172491 1.428128 -2.768748 -8.294595 -15.379483 4.299742 -72.553791 -39.363197 95.939053 -2.138910 -7.030875 -4.932074 -12.685257 3.912876 -4.609652 4.835796 -16.631752 -0.675678 105.471945 -43.704111 -110.457313 41.445700 0.994535 -5.660535 -20.461420 -37.124000 11.698269 31.311433 85.915128 27.672837 0.097164 -18.033714 -1.471256 -0.155652 1.264934 -0.045786 -16.622792 -50.361126 18.482460 171.301642 78.994686 167.448183 -1.027659 -16.561085 1.381247 -0.724041 -2.336490 -0.347797
-6.388708 55.489859 27.730071 177.530999 -27.554092 -10.828670 0.862352 15.169592 6.604751 0.349146 8.712072 2.589887 0.507820 10.853538 3.241063 0.357202 8.717864 2.589653 3.829096 20.619504 -2.859047 4.787619 -3.651820 -3.963659 0.184974 1.415343 -2.743864 -8.294022 -15.374926 4.300473 -72.580116 -39.527056 95.953985 -2.090659 -7.051245 -4.947327 -12.728480 3.929983 -4.591939 4.803068 -16.607392 -0.708616 105.602185 -43.731071 -110.441161 41.339737 0.979727 -5.581605 -20.331507 -37.224170 11.648892 31.349714 85.995594 27.713458 0.037228 -17.757915 -1.470700 -0.098277 1.016002 -0.021348 -16.449206 -50.382618 18.334137 171.116074 78.988265 167.284647 -1.004730 -16.435610 1.363429 -0.723929 -2.439929 -0.348565
